<?xml version="1.0" standalone="no"?>
<!DOCTYPE svg PUBLIC "-//W3C//DTD SVG 20010904//EN"
 "http://www.w3.org/TR/2001/REC-SVG-20010904/DTD/svg10.dtd">
<svg version="1.0" xmlns="http://www.w3.org/2000/svg"
 width="900.000000pt" height="900.000000pt" viewBox="0 0 900.000000 900.000000"
 preserveAspectRatio="xMidYMid meet">
<metadata>
Created by potrace 1.10, written by Peter Selinger 2001-2011
</metadata>
<g transform="translate(0.000000,900.000000) scale(0.100000,-0.100000)"
fill="#26ff00" stroke="none">
<path d="M7890 8985 c0 -9 11 -38 25 -65 73 -145 122 -392 111 -565 -17 -281
-89 -469 -244 -636 -203 -219 -525 -344 -989 -383 -167 -14 -213 -9 -395 38
-394 102 -745 141 -1210 133 -429 -7 -723 -46 -1060 -141 -145 -40 -180 -45
-338 -51 -609 -22 -1156 -190 -1565 -479 -171 -120 -387 -329 -537 -518 -300
-376 -473 -801 -544 -1333 -13 -96 -15 -182 -11 -420 2 -171 9 -328 16 -365
47 -252 61 -304 82 -307 8 -1 59 49 113 110 55 62 138 155 186 207 263 285
349 386 350 407 0 11 -13 50 -28 85 -46 103 -110 321 -134 458 -17 100 -17
453 0 540 56 280 140 449 306 616 177 179 394 289 706 358 214 47 233 46 183
-16 -15 -18 -30 -35 -33 -38 -39 -35 -163 -228 -212 -330 -64 -134 -111 -334
-124 -525 -7 -106 19 -283 60 -408 106 -319 397 -612 1093 -1095 88 -62 166
-119 173 -127 12 -15 10 -54 -21 -360 -6 -55 -14 -147 -19 -205 -5 -58 -13
-145 -19 -195 -5 -49 -17 -173 -26 -275 -68 -778 -236 -1275 -530 -1566 -83
-82 -93 -87 -177 -79 -40 4 -113 13 -163 21 -49 8 -108 14 -131 14 -58 0 -109
40 -193 152 -68 91 -148 230 -175 305 -26 75 -54 159 -71 221 -10 35 -22 65
-25 67 -4 3 -101 -42 -216 -99 -115 -57 -267 -131 -339 -166 -360 -173 -412
-200 -424 -214 -11 -13 -8 -26 19 -81 143 -288 426 -558 735 -701 39 -18 79
-42 89 -53 11 -12 31 -21 48 -21 16 0 57 -9 91 -20 263 -85 502 -129 815 -150
364 -24 806 -3 1172 56 766 123 1440 442 1860 880 238 248 350 459 432 814 17
75 17 396 0 475 -66 301 -224 567 -492 828 -223 217 -299 273 -965 716 -274
183 -505 341 -513 352 -11 15 -11 38 -2 121 6 57 15 144 20 193 6 50 14 144
20 210 5 66 14 165 19 220 6 55 17 172 26 260 9 88 22 223 30 300 8 77 22 219
30 315 20 226 24 258 35 265 4 3 288 5 630 6 l622 1 24 -23 c38 -36 91 -150
104 -226 14 -81 -2 -188 -51 -335 -16 -49 -29 -97 -29 -108 0 -34 55 -55 145
-55 74 0 85 3 131 32 75 49 123 108 199 248 21 39 51 95 68 125 16 30 43 80
60 110 16 30 40 74 53 98 13 23 47 86 75 140 69 129 83 147 121 162 372 140
668 328 934 594 246 247 403 494 503 793 63 188 89 340 106 611 l6 92 -311 0
c-272 0 -310 -2 -310 -15z m-3768 -2251 c11 -7 12 -1 -22 -349 -11 -115 -25
-259 -30 -320 -5 -60 -14 -150 -19 -200 -6 -49 -17 -164 -26 -255 -27 -276
-28 -284 -48 -288 -20 -4 -224 166 -334 279 -142 145 -232 296 -273 459 -19
72 -21 104 -17 205 6 145 31 249 88 362 43 86 62 109 93 114 35 7 577 0 588
-7z m557 -3121 c631 -418 960 -796 1045 -1199 44 -210 22 -405 -69 -600 -126
-269 -458 -524 -830 -637 -157 -47 -333 -83 -347 -69 -10 10 15 43 107 140 69
73 81 90 68 103 -8 8 -211 23 -763 54 -331 19 -370 23 -370 36 0 5 27 27 61
47 355 216 538 388 648 608 103 205 176 525 216 944 9 91 22 230 30 310 8 80
17 183 20 229 6 82 18 131 31 131 4 0 72 -44 153 -97z"/>
</g>
</svg>
